<?xml version="1.0" encoding="UTF-8"?>
<svg width="800px" height="800px" viewBox="0 0 800 800" version="1.1" xmlns="http://www.w3.org/2000/svg" xmlns:xlink="http://www.w3.org/1999/xlink">
    <title>Rectangle</title>
    <g id="Dritte-Runde" stroke="none" stroke-width="1" fill="none" fill-rule="evenodd">
        <g id="SVGs" fill-rule="nonzero">
            <g id="08" transform="translate(94.000000, 116.000000)">
                <path d="M612,441.669605 C612,431.371407 573.210906,423.023101 525.362368,423.023101 C477.51383,423.023101 438.724736,431.371407 438.724736,441.669605 C438.724736,448.269721 454.671858,454.064482 478.711335,457.378365 L478.711335,559.542147 C478.711335,564.323445 482.590234,568.199453 487.375098,568.199453 C492.159963,568.199453 496.038862,564.323445 496.038862,559.542147 L496.038862,459.218629 C505.198552,459.927742 515.068284,460.316108 525.362368,460.316108 C535.656451,460.316108 545.526184,459.927688 554.685874,459.218629 L554.685874,559.542147 C554.685874,564.323445 558.564773,568.199453 563.349637,568.199453 C568.134502,568.199453 572.013401,564.323445 572.013401,559.542147 L572.013401,457.378365 C596.052864,454.064482 612,448.269774 612,441.669605 Z" id="Path" fill="#CCCCCC"></path>
                <ellipse id="Oval" fill="#2F2E41" cx="534.942317" cy="233.704427" rx="37.3208261" ry="37.2930078"></ellipse>
                <polygon id="Path" fill="#A0616A" points="442.065963 552.780965 425.724773 552.780965 417.951378 489.798402 442.068629 489.798402"></polygon>
                <path d="M414.052964,548.114837 L445.567563,548.114837 L445.567563,567.942557 L394.210467,567.942557 L394.210467,567.942557 C394.210467,562.68392 396.301005,557.640662 400.022195,553.922243 C403.743386,550.203823 408.790404,548.114837 414.052964,548.114837 Z" id="Path" fill="#2F2E41"></path>
                <polygon id="Path" fill="#A0616A" points="416.558511 543.668152 400.966403 538.778772 412.418565 476.3596 435.42952 483.574466"></polygon>
                <path d="M387.992259,532.126825 L419.504752,532.120115 L419.500527,551.949161 L368.14681,551.960097 L368.14681,551.960097 C368.147927,546.701099 370.23941,541.65705 373.961156,537.937588 C377.682902,534.218126 382.730042,532.127932 387.992259,532.126825 Z" id="Path" fill="#2F2E41" transform="translate(393.825781, 542.040106) rotate(17.422620) translate(-393.825781, -542.040106) "></path>
                <path d="M421.87409,518.538365 C421.158398,518.538365 420.448588,518.409235 419.778792,518.157257 L407.757101,513.653021 C404.967755,512.598092 403.372165,509.661086 404.006358,506.74902 C407.03301,493.150391 417.348233,446.852853 422.996407,422.020332 C429.695335,392.565209 527.418452,387.091954 531.574939,386.873443 L531.916611,386.855236 L542.909674,400.65931 C546.881983,413.41766 545.622965,423.36914 539.167435,430.237992 C520.330654,450.278829 464.089409,437.843102 457.383003,436.269231 L427.490048,514.679298 C426.598296,517.003535 424.365146,518.538365 421.87409,518.538365 Z" id="Path" fill="#2F2E41"></path>
                <path d="M439.201616,527.861617 C438.485925,527.861617 437.776114,527.732487 437.106318,527.480509 L425.084627,522.976273 C422.295281,521.921344 420.699691,518.984338 421.333884,516.072272 C424.360536,502.473643 434.675759,456.176105 440.323933,431.343584 C447.022862,401.888461 544.745979,396.415205 548.902466,396.196695 L549.244138,396.178488 L560.2372,409.982562 C564.209509,422.740912 562.950491,432.692392 556.494961,439.561244 C537.658181,459.600775 481.417268,447.166354 474.710529,445.592483 L444.817574,524.00255 C443.925822,526.326787 441.692672,527.861617 439.201616,527.861617 L439.201616,527.861617 Z" id="Path" fill="#2F2E41"></path>
                <path d="M404.420339,336.042381 C404.861976,336.632662 405.256346,337.256821 405.599784,337.909056 L471.3381,344.829879 L480.801048,331.865231 L502.248141,343.578552 L483.661676,375.039626 L403.038842,354.498477 C398.874118,358.555752 392.631558,359.614748 387.360175,357.158227 C382.088793,354.701705 378.888452,349.242215 379.322275,343.446299 C379.756098,337.650383 383.733568,332.727349 389.311995,331.081723 C394.890422,329.436097 400.905878,331.411236 404.420272,336.042434 L404.420339,336.042381 Z" id="Path" fill="#A0616A"></path>
                <path d="M557.186476,415.265915 C556.235817,415.262934 555.299478,415.034223 554.454645,414.598637 C541.309317,407.919672 515.712429,396.352753 491.976237,393.932184 C490.33362,393.771153 488.835343,392.924742 487.850339,391.601371 C486.846161,390.264564 486.443588,388.570661 486.739058,386.92544 C488.880927,375.077572 493.794307,344.908381 493.161386,320.728793 C492.777349,305.415731 503.063907,291.881045 517.929086,288.140338 L517.929086,288.140338 C522.273963,286.995018 526.687053,286.125746 531.141871,285.537739 C541.524812,284.223554 551.917066,287.901312 559.157934,295.45246 C566.398802,303.003609 569.632427,313.535616 567.875334,323.845276 C563.642379,348.902821 559.375249,383.900138 563.083966,408.330748 C563.431226,410.563382 562.494444,412.801743 560.659979,414.122658 C559.652449,414.861557 558.43623,415.261859 557.186476,415.265915 Z" id="Path" fill="#FFFFFF"></path>
                <path d="M494.378112,351.532804 C493.558678,351.53156 492.748194,351.362455 491.99675,351.035888 L474.871955,343.628538 C471.835481,342.310404 470.439211,338.785394 471.750335,335.747726 L484.988085,305.190914 C487.161168,300.165835 491.852931,296.681696 497.294814,296.051841 C502.736696,295.421986 508.101268,297.742185 511.366354,302.137838 C514.63144,306.533492 515.300588,312.336248 513.121563,317.358757 L499.88408,347.915622 C498.932284,350.108484 496.770124,351.52893 494.378112,351.532804 L494.378112,351.532804 Z" id="Path" fill="#FFFFFF"></path>
                <ellipse id="Oval" fill="#A0616A" cx="533.577948" cy="242.429899" rx="32.7370689" ry="32.7126673"></ellipse>
                <path d="M500.251637,226.357838 C515.758183,235.816648 533.239803,241.572531 551.33609,243.17757 L545.951348,236.730382 C549.872088,238.178936 553.997758,238.997571 558.174905,239.155839 C562.347107,239.090909 566.718522,237.485645 569.086461,234.052411 C571.230114,230.588338 571.541431,226.295215 569.919942,222.558519 C568.278879,218.886512 565.724748,215.695225 562.500602,213.288343 C550.892937,204.113006 535.457995,201.356556 521.38842,205.946322 C516.636822,207.365331 512.381311,210.093061 509.109375,213.817038 C506.005895,217.642755 500.031084,221.051309 501.620151,225.713068 L500.251637,226.357838 Z" id="Path" fill="#2F2E41"></path>
                <path d="M539.082477,199.95857 C528.757239,189.495817 516.26232,181.421886 502.477411,176.305214 C493.628749,173.029529 483.997484,171.005678 474.746584,172.865919 C465.495684,174.726161 456.747136,181.1211 454.166268,190.190892 C452.055882,197.607353 454.235018,205.592638 457.510094,212.574089 C460.785169,219.55554 465.157637,226.029513 467.80615,233.271522 C473.296581,248.28446 470.817168,265.053505 461.216636,277.838471 C451.616104,290.623437 436.196753,297.690058 420.236758,296.61937 C429.326219,297.837226 437.704451,302.105504 446.58894,304.377421 C455.47343,306.649337 465.959529,306.495277 472.561889,300.135101 C479.547442,293.405791 479.687302,282.464622 479.349561,272.7747 C478.847507,258.370293 478.345453,243.965869 477.843399,229.561427 C477.587352,222.215464 477.368692,214.634048 480.019843,207.777635 C482.670995,200.921223 488.971737,194.917288 496.327378,194.979674 C501.902217,195.026956 506.83643,198.401641 511.307238,201.729709 C515.778047,205.057776 520.510087,208.60859 526.06308,209.103615 C531.616072,209.59864 537.956334,205.492253 537.540807,199.93686" id="Path" fill="#2F2E41"></path>
                <path d="M478.539046,406.862815 C472.605346,406.85612 467.2602,403.277672 464.996889,397.796665 C462.733579,392.315658 463.998014,386.011938 468.200388,381.82592 C472.402763,377.639903 478.715142,376.396301 484.193072,378.675201 L484.193391,378.675201 C484.795957,378.929323 485.380077,379.225076 485.941512,379.560311 L545.575821,352.806693 L547.251032,336.645129 L572.956938,335.957726 L572.786755,362.864178 C572.721869,369.264369 568.462679,374.863972 562.308813,376.639642 L492.569518,396.47562 C492.433924,396.936107 492.274143,397.389135 492.090838,397.832819 C489.803112,403.293144 484.463025,406.851402 478.539073,406.862815 L478.539046,406.862815 Z" id="Path" fill="#A0616A"></path>
                <path d="M570.779747,349.147424 C570.048597,349.51714 569.249337,349.733098 568.431361,349.781951 L549.806163,350.92626 C546.501509,351.124994 543.659178,348.613894 543.451612,345.312237 L541.407284,312.077894 C541.061362,306.610614 543.663952,301.375002 548.232748,298.347157 C552.801545,295.319312 558.640804,294.960319 563.546591,297.405674 C568.452377,299.851029 571.67763,304.728349 572.00503,310.196768 L574.049678,343.430978 C574.194797,345.816822 572.9107,348.061658 570.779721,349.147463 L570.779747,349.147424 Z" id="Path" fill="#FFFFFF"></path>
                <path d="M425.002308,400.899863 L530.300353,400.899863 C532.876818,400.899863 534.965456,402.986944 534.965456,405.561489 L534.965456,405.561489 C534.965456,408.136034 532.876818,410.223115 530.300353,410.223115 L425.002308,410.223115 C422.425843,410.223115 420.337205,408.136034 420.337205,405.561489 L420.337205,405.561489 C420.337205,402.986944 422.425843,400.899863 425.002308,400.899863 L425.002308,400.899863 Z" id="Path" fill="#3F3D56" transform="translate(477.651331, 405.561489) rotate(180.000000) translate(-477.651331, -405.561489) "></path>
                <path d="M379.017705,401.565809 L379.017705,336.303046 C379.023119,331.52399 382.898848,327.65115 387.681469,327.64574 L506.30838,327.64574 C511.091,327.65115 514.96673,331.52399 514.972143,336.303046 L514.972143,401.565809 C514.966737,406.344868 511.091003,410.217713 506.30838,410.223115 L387.681469,410.223115 C382.898845,410.217713 379.023112,406.344868 379.017705,401.565809 L379.017705,401.565809 Z" id="Path" fill="#3F3D56"></path>
                <ellipse id="Oval" fill="#FFFFFF" cx="446.994924" cy="368.934428" rx="7.99731988" ry="7.99135882"></ellipse>
                <path d="M195.146291,292.133727 C192.959998,288.826496 189.420002,286.656804 185.47885,286.208476 C181.537698,285.760147 177.60024,287.079235 174.725975,289.810798 L132.400919,267.980937 L135.032037,292.573651 L174.821236,309.533326 C179.84381,314.15566 187.532426,314.293666 192.71789,309.854558 C197.903353,305.415451 198.946612,297.80237 195.146265,292.133727 L195.146291,292.133727 Z" id="Path" fill="#FFB8B8"></path>
                <path d="M157.531844,302.032596 C155.982993,302.742568 154.205205,302.761519 152.641549,302.084726 L112.438769,284.65813 C98.6924996,278.701684 87.5793649,267.958642 81.1665823,254.427379 L60.0310654,209.847371 C55.7874064,204.399559 54.7775316,197.102184 57.3823949,190.708026 C59.9872582,184.313868 65.8104438,179.796008 72.6552783,178.858715 C79.5001128,177.921421 86.3249289,180.707333 90.5552093,186.165525 L127.706359,255.042461 L162.010609,280.936514 C164.021852,282.461713 164.866397,285.079316 164.125407,287.491173 L160.758402,298.358396 C160.396783,299.523677 159.688318,300.551143 158.727443,301.303838 C158.359076,301.593037 157.957752,301.837658 157.531844,302.032596 L157.531844,302.032596 Z" id="Path" fill="#CCCCCC"></path>
                <ellipse id="Oval" fill="#FFB8B8" cx="59.1008572" cy="124.706422" rx="32.7370689" ry="32.7126673"></ellipse>
                <polygon id="Path" fill="#FFB8B8" points="72.3611066 553.837156 88.700964 553.837156 96.4756918 490.854593 72.357108 490.854593"></polygon>
                <path d="M68.8591821,549.171103 L120.216278,549.171103 L120.216278,568.998825 L88.7016797,568.998825 C77.7429713,568.998825 68.8591821,560.121656 68.8591821,549.171103 L68.8591821,549.171103 L68.8591821,549.171103 Z" id="Path" fill="#2F2E41" transform="translate(94.537730, 559.084964) rotate(179.997380) translate(-94.537730, -559.084964) "></path>
                <polygon id="Path" fill="#FFB8B8" points="19.0456407 553.837156 35.3854981 553.837156 43.160226 490.854593 19.0416421 490.854593"></polygon>
                <path d="M15.5437162,549.171104 L66.9008124,549.171104 L66.9008124,568.998826 L35.3862138,568.998826 C24.4275053,568.998826 15.5437162,560.121658 15.5437162,549.171104 L15.5437162,549.171104 L15.5437162,549.171104 Z" id="Path" fill="#2F2E41" transform="translate(41.222264, 559.084965) rotate(179.997380) translate(-41.222264, -559.084965) "></path>
                <path d="M13.3393397,535.809516 C12.2002426,534.509929 11.6779537,532.782276 11.9064866,531.069855 L40.5163653,316.654572 L111.597358,328.717049 L119.183362,324.168633 L99.5666293,527.607452 C99.2302353,530.438534 96.9495818,532.64387 94.1068724,532.886903 L72.5838053,534.679232 C70.8524378,534.823822 69.1434137,534.210985 67.8991004,532.999347 C66.6547871,531.78771 65.9975023,530.096379 66.0973791,528.363142 L71.669725,431.478318 C71.6900498,431.137389 71.449003,430.836348 71.1116716,430.781371 C70.7743403,430.726394 70.4500606,430.935301 70.3609236,431.265015 L42.7926825,533.421472 C42.0840543,536.035434 39.7118545,537.851755 37.0016632,537.855477 L17.8520807,537.855477 C16.1229738,537.855477 14.4779915,537.109808 13.3393397,535.809516 L13.3393397,535.809516 Z" id="Path" fill="#2F2E41"></path>
                <path d="M62.5660026,331.663076 C60.8826084,330.139903 58.3510928,330.034329 56.5465398,331.412041 L42.3354757,342.457431 C40.7651206,343.681394 38.6888602,344.045848 36.7950671,343.42996 C34.901274,342.814072 33.4373964,341.298316 32.8887749,339.385233 C25.9181376,314.991037 10.1252435,253.587341 14.015873,210.369793 C16.2211873,185.872841 37.3908528,167.25496 61.2067248,168.817071 C77.4886949,169.901831 88.2003451,179.287522 93.0440552,196.712693 C104.936883,239.495858 118.00673,317.973492 120.505892,333.272056 C120.909698,335.701344 119.778595,338.128989 117.658206,339.383941 C110.934362,343.417522 103.252018,345.577783 95.4098091,345.640149 C85.9208157,345.640149 74.5431087,342.338986 62.5660026,331.663076 Z" id="Path" fill="#CCCCCC"></path>
                <path d="M67.9280856,346.882073 C68.2502371,342.931518 66.8046864,339.041282 63.9804026,336.25815 C61.1561188,333.475018 57.2432201,332.084882 53.2945897,332.461799 L33.4721127,289.184343 L20.3544555,310.158077 L41.1893131,348.039595 C42.2867497,354.773984 48.2514428,359.623845 55.0732252,359.32853 C61.8950076,359.033215 67.4176136,353.68607 67.9280989,346.882073 L67.9280856,346.882073 Z" id="Path" fill="#FFB8B8"></path>
                <path d="M32.2171333,331.475785 C30.5599204,331.079322 29.1493283,329.997936 28.3369136,328.501135 L7.46500172,289.997197 C0.327105881,276.833478 -1.78275989,261.527099 1.52787141,246.925278 L12.4288315,198.813302 C12.4557421,191.91079 16.1681868,185.547683 22.1661114,182.123664 C28.164036,178.699645 35.5349595,178.73562 41.4991257,182.218022 C47.4632918,185.700424 51.1133553,192.099466 51.0731223,199.001911 L37.7686462,276.108628 L48.7698527,317.637949 C49.4105011,320.078334 48.4584603,322.658839 46.3858783,324.099708 L37.025082,330.57448 C36.0208784,331.268404 34.8288656,331.63973 33.6079339,331.63973 C33.1394851,331.63973 32.672639,331.585061 32.2171333,331.475785 Z" id="Path" fill="#CCCCCC"></path>
                <polygon id="Path" fill="#000000" opacity="0.2" points="48.4171309 231.520349 36.4211511 282.132288 53.7486775 324.752868 41.7526977 283.464181"></polygon>
                <path d="M40.4194511,151.606468 C37.5073923,151.660465 34.613493,151.137276 31.9049712,150.067132 C30.713224,149.608202 29.4761052,149.230983 28.2865705,148.771759 C17.7811578,144.716025 10.8608503,133.536141 10.6130001,122.285067 C10.3651498,111.033992 16.1960224,100.113774 24.8544007,92.9170892 C33.5127791,85.7204045 44.727554,82.0255864 55.957244,81.1711237 C68.0534836,80.2507855 81.6742522,83.3160443 88.4334937,93.3822662 C90.2326907,96.0617289 91.490989,99.312627 90.4248263,102.547822 C90.1055043,103.524097 89.5352061,104.399457 88.7709939,105.086317 C85.7524055,107.769909 82.7430274,105.752117 79.6658319,105.57379 C75.4362627,105.328722 71.6373492,108.749782 70.2719668,112.757422 C68.9065843,116.765062 69.5076229,121.177131 70.6100801,125.264805 C71.4499382,127.724511 71.9794024,130.279314 72.1862052,132.870021 C72.3671296,135.511263 71.1678047,138.05807 69.0158544,139.602368 C66.3729001,141.198748 62.9019966,140.274827 60.2574562,138.681017 C57.6129158,137.087207 55.3278949,134.871177 52.4713456,133.698339 C49.6147962,132.5255 45.7770023,132.785659 44.1143595,135.386233 C43.5859713,136.332499 43.2283427,137.364293 43.0578336,138.434417 C41.5672931,145.220213 41.9098717,144.820579 40.4193312,151.606374 L40.4194511,151.606468 Z" id="Path" fill="#2F2E41"></path>
                <path d="M324.259622,262.620653 C323.158921,261.229352 322.761851,259.408557 323.183449,257.685776 C328.154612,236.878659 328.154475,215.194409 323.183049,194.387355 C322.761791,192.664509 323.158988,190.843808 324.259622,189.452477 C325.33679,188.080663 326.986813,187.281812 328.73179,187.287271 L381.87694,187.287271 C384.681477,187.292554 387.070661,189.324193 387.524514,192.089706 C390.991219,214.588384 390.991219,237.484747 387.524514,259.983425 C387.070661,262.748937 384.681477,264.780576 381.87694,264.78586 L328.73179,264.78586 C326.986813,264.791318 325.33679,263.992467 324.259622,262.620653 L324.259622,262.620653 Z" id="Path" fill="#FFFFFF"></path>
                <path d="M242.045641,75.3325836 C240.945068,73.9415357 240.548137,72.1209785 240.969881,70.3985189 C245.940975,49.5914097 245.940975,27.907207 240.969881,7.10009778 C240.548139,5.3776339 240.945069,3.55707355 242.045641,2.16601974 C243.122494,0.79370788 244.772648,-0.00550331652 246.517822,0 L299.663372,0 C302.467768,0.0056766223 304.856734,2.03713667 305.310946,4.80244893 C308.77765,27.3011225 308.77765,50.1974809 305.310946,72.6961544 C304.856734,75.4614667 302.467768,77.4929268 299.663372,77.4986035 L246.517835,77.4986035 C244.772655,77.5041168 243.122493,76.704904 242.045641,75.3325836 Z" id="Path" fill="#FFFFFF"></path>
                <path d="M372.817456,137.982013 C369.350737,115.483341 369.350737,92.5869802 372.817456,70.0883077 C373.271118,67.3228542 375.660168,65.2911743 378.464616,65.2858587 L431.610166,65.2858587 C433.355341,65.2803514 435.005496,66.0795634 436.082347,67.4518785 C437.182936,68.8429219 437.580007,70.6634274 437.15852,72.3859565 C432.187095,93.1930109 432.186958,114.877261 437.15812,135.684378 C437.579953,137.406838 437.183009,139.227436 436.082347,140.618442 C435.0055,141.990762 433.355343,142.789975 431.610166,142.784462 L378.464616,142.784462 C375.660168,142.779147 373.271118,140.747467 372.817456,137.982013 L372.817456,137.982013 Z" id="Path" fill="#FFFFFF"></path>
                <path d="M150.327978,135.611403 C146.861673,113.112695 146.861673,90.216393 150.327978,67.7176844 C150.78219,64.9523745 153.171157,62.9209188 155.975552,62.9152487 L209.121101,62.9152487 C210.866274,62.9097403 212.516428,63.7089467 213.593283,65.0812552 C214.693867,66.4723009 215.090933,68.2928062 214.669442,70.0153333 C209.698017,90.8223876 209.69788,112.506637 214.669042,133.313754 C215.090873,135.036217 214.693934,136.856816 213.593283,138.247832 C212.516428,139.620141 210.866274,140.419347 209.121101,140.413839 L155.975552,140.413839 C153.171157,140.408169 150.78219,138.376713 150.327978,135.611403 L150.327978,135.611403 Z" id="Path" fill="#CC4320"></path>
                <path d="M163.472799,292.337693 C162.35403,290.923543 161.95044,289.072854 162.378953,287.321783 C167.432196,266.172883 167.432055,244.132295 162.378539,222.98346 C161.950388,221.232317 162.354124,219.381723 163.472839,217.96755 C164.567709,216.5732 166.244842,215.761225 168.018489,215.766768 L222.036706,215.766768 C224.88732,215.772144 227.315751,217.837169 227.777049,220.648118 C231.300722,243.516411 231.300722,266.788925 227.777049,289.657218 C227.315745,292.468162 224.887315,294.53318 222.036706,294.538555 L168.018449,294.538555 C166.244789,294.544079 164.567653,293.732073 163.472799,292.337693 Z" id="Path" fill="#FFFFFF"></path>
                <path d="M211.612706,244.830996 L183.156403,244.830996 C180.949003,244.828588 179.160152,243.041071 179.157743,240.835316 L179.157743,239.138578 C179.160152,236.932823 180.949003,235.145306 183.156403,235.142898 L211.612693,235.142898 C213.820093,235.145306 215.608943,236.932823 215.611353,239.138578 L215.611353,240.835303 C215.608951,243.041058 213.820106,244.828581 211.612706,244.830996 Z" id="Path" fill="#009999"></path>
                <path d="M211.612706,261.542738 L183.156403,261.542738 C180.949003,261.540331 179.160152,259.752814 179.157743,257.547059 L179.157743,255.850334 C179.160152,253.644579 180.949003,251.857062 183.156403,251.854654 L211.612693,251.854654 C213.820093,251.857062 215.608943,253.644579 215.611353,255.850334 L215.611353,257.547059 C215.608943,259.752809 213.820101,261.540323 211.612706,261.542738 L211.612706,261.542738 Z" id="Path" fill="#009999"></path>
                <path d="M192.766516,95.7818848 L164.877715,95.7818848 C162.670315,95.7794772 160.881465,93.9919602 160.879055,91.7862054 L160.879055,90.2253865 C160.881465,88.0196317 162.670315,86.2321148 164.877715,86.2297071 L192.766516,86.2297071 C194.973916,86.2321148 196.762766,88.0196317 196.765175,90.2253865 L196.765175,91.7862054 C196.762766,93.9919602 194.973916,95.7794772 192.766516,95.7818848 Z" id="Path" fill="#FFFFFF"></path>
                <path d="M370.946029,213.160815 L343.057589,213.160815 C340.850189,213.158407 339.061338,211.37089 339.058929,209.165135 L339.058929,207.603677 C339.061338,205.397922 340.850189,203.610405 343.057589,203.607997 L370.946029,203.607997 C373.15343,203.610405 374.94228,205.397922 374.944689,207.603677 L374.944689,209.165135 C374.94228,211.37089 373.15343,213.158407 370.946029,213.160815 L370.946029,213.160815 Z" id="Path" fill="#000000"></path>
                <path d="M370.946029,232.890787 L343.057589,232.890787 C340.850189,232.888379 339.061338,231.100862 339.058929,228.895107 L339.058929,227.333636 C339.061338,225.127881 340.850189,223.340364 343.057589,223.337957 L370.946029,223.337957 C373.153427,223.340372 374.942273,225.127884 374.944689,227.333636 L374.944689,228.895107 C374.942273,231.100859 373.153427,232.888372 370.946029,232.890787 L370.946029,232.890787 Z" id="Path" fill="#000000"></path>
                <path d="M370.946029,252.620746 L343.057589,252.620746 C340.850189,252.618338 339.061338,250.830821 339.058929,248.625067 L339.058929,247.063608 C339.061338,244.857854 340.850189,243.070337 343.057589,243.067929 L370.946029,243.067929 C373.15343,243.070337 374.94228,244.857854 374.944689,247.063608 L374.944689,248.625067 C374.94228,250.830821 373.15343,252.618338 370.946029,252.620746 L370.946029,252.620746 Z" id="Path" fill="#000000"></path>
                <path d="M192.766516,112.223733 L164.877715,112.223733 C162.670315,112.221325 160.881465,110.433808 160.879055,108.228053 L160.879055,106.666595 C160.881465,104.46084 162.670315,102.673323 164.877715,102.670916 L192.766516,102.670916 C194.973916,102.673323 196.762766,104.46084 196.765175,106.666595 L196.765175,108.228053 C196.762766,110.433808 194.973916,112.221325 192.766516,112.223733 L192.766516,112.223733 Z" id="Path" fill="#FFFFFF"></path>
                <path d="M288.970275,29.1618554 L261.081808,29.1618554 C258.874408,29.1594477 257.085557,27.3719307 257.083148,25.166176 L257.083148,23.6047178 C257.085557,21.398963 258.874408,19.611446 261.081808,19.6090383 L288.970275,19.6090383 C291.177675,19.611446 292.966526,21.398963 292.968935,23.6047178 L292.968935,25.166176 C292.966526,27.3719307 291.177675,29.1594477 288.970275,29.1618554 Z" id="Path" fill="#000000"></path>
                <path d="M416.226095,99.7970632 L388.337334,99.7970632 C386.129934,99.7946555 384.341084,98.0071385 384.338675,95.8013837 L384.338675,94.2399255 C384.341084,92.0341708 386.129934,90.2466538 388.337334,90.2442461 L416.226095,90.2442461 C418.433495,90.2466538 420.222345,92.0341708 420.224755,94.2399255 L420.224755,95.8013837 C420.222345,98.0071385 418.433495,99.7946555 416.226095,99.7970632 Z" id="Path" fill="#009999"></path>
            </g>
        </g>
    </g>
</svg>